<?xml version="1.0" encoding="UTF-8"?>
<!DOCTYPE svg PUBLIC "-//W3C//DTD SVG 1.1//EN" "http://www.w3.org/Graphics/SVG/1.1/DTD/svg11.dtd">
<svg xmlns="http://www.w3.org/2000/svg" version="1.1" width="640px" height="156px" style="shape-rendering:geometricPrecision; text-rendering:geometricPrecision; image-rendering:optimizeQuality; fill-rule:evenodd; clip-rule:evenodd" xmlns:xlink="http://www.w3.org/1999/xlink">
<g><path style="opacity:0.004" fill="#000000" d="M 218.5,-0.5 C 218.833,-0.5 219.167,-0.5 219.5,-0.5C 219.315,0.170143 218.981,0.170143 218.5,-0.5 Z"/></g>
<g><path style="opacity:0.004" fill="#000000" d="M 235.5,0.5 C 236.833,1.16667 236.833,1.16667 235.5,0.5 Z"/></g>
<g><path style="opacity:0.993" fill="#fefefe" d="M 6.5,1.5 C 28.5393,1.06721 50.5393,1.56721 72.5,3C 85.1995,5.36305 94.0328,12.5297 99,24.5C 102.664,35.7771 102.997,47.1104 100,58.5C 97.6113,63.5541 94.4446,68.0541 90.5,72C 100.05,80.1025 104.717,90.4358 104.5,103C 104.968,129.856 91.9681,144.856 65.5,148C 45.8333,148.667 26.1667,148.667 6.5,148C 5.66667,147.167 4.83333,146.333 4,145.5C 3.33333,98.5 3.33333,51.5 4,4.5C 5.04499,3.62656 5.87833,2.62656 6.5,1.5 Z M 42.5,38.5 C 47.5111,38.3341 52.5111,38.5007 57.5,39C 59.8881,41.3059 60.8881,44.1392 60.5,47.5C 60.8881,50.8608 59.8881,53.6941 57.5,56C 52.5111,56.4993 47.5111,56.6659 42.5,56.5C 42.5,50.5 42.5,44.5 42.5,38.5 Z M 42.5,92.5 C 48.1764,92.3339 53.8431,92.5006 59.5,93C 64.0008,98.1557 64.5008,103.656 61,109.5C 60.2496,110.126 59.4162,110.626 58.5,111C 53.1771,111.499 47.8437,111.666 42.5,111.5C 42.5,105.167 42.5,98.8333 42.5,92.5 Z"/></g>
<g><path style="opacity:0.992" fill="#fefefe" d="M 160.5,0.5 C 194.528,1.9358 213.361,19.6025 217,53.5C 217.667,67.5 217.667,81.5 217,95.5C 216.412,112.169 210.245,126.335 198.5,138C 190.494,143.892 181.494,147.226 171.5,148C 154.167,148.667 136.833,148.667 119.5,148C 118.667,147.167 117.833,146.333 117,145.5C 116.333,98.5 116.333,51.5 117,4.5C 117.833,3.66667 118.667,2.83333 119.5,2C 133.339,1.83109 147.006,1.33109 160.5,0.5 Z M 155.5,43.5 C 159.846,43.3343 164.179,43.501 168.5,44C 172.4,45.5687 174.9,48.402 176,52.5C 177.978,67.4969 177.978,82.4969 176,97.5C 174.998,101.68 172.498,104.514 168.5,106C 164.179,106.499 159.846,106.666 155.5,106.5C 155.5,85.5 155.5,64.5 155.5,43.5 Z"/></g>
<g><path style="opacity:0.004" fill="#000000" d="M 225.5,1.5 C 226.833,2.16667 226.833,2.16667 225.5,1.5 Z"/></g>
<g><path style="opacity:0.004" fill="#000000" d="M 225.5,2.5 C 224.833,3.16667 224.833,3.16667 225.5,2.5 Z"/></g>
<g><path style="opacity:0.004" fill="#000000" d="M 273.5,4.5 C 274.833,5.16667 274.833,5.16667 273.5,4.5 Z"/></g>
<g><path style="opacity:0.004" fill="#000000" d="M 366.5,7.5 C 367.833,8.16667 367.833,8.16667 366.5,7.5 Z"/></g>
<g><path style="opacity:0.004" fill="#000000" d="M 347.5,8.5 C 348.833,9.16667 348.833,9.16667 347.5,8.5 Z"/></g>
<g><path style="opacity:0.004" fill="#000000" d="M 406.5,12.5 C 407.833,13.1667 407.833,13.1667 406.5,12.5 Z"/></g>
<g><path style="opacity:0.004" fill="#000000" d="M 463.5,12.5 C 464.833,13.1667 464.833,13.1667 463.5,12.5 Z"/></g>
<g><path style="opacity:0.004" fill="#000000" d="M 113.5,17.5 C 114.833,18.1667 114.833,18.1667 113.5,17.5 Z"/></g>
<g><path style="opacity:0.004" fill="#000000" d="M 489.5,19.5 C 490.833,20.1667 490.833,20.1667 489.5,19.5 Z"/></g>
<g><path style="opacity:0.004" fill="#000000" d="M 560.5,20.5 C 561.833,21.1667 561.833,21.1667 560.5,20.5 Z"/></g>
<g><path style="opacity:0.004" fill="#000000" d="M 595.5,24.5 C 596.833,25.1667 596.833,25.1667 595.5,24.5 Z"/></g>
<g><path style="opacity:0.004" fill="#000000" d="M 610.5,24.5 C 611.833,25.1667 611.833,25.1667 610.5,24.5 Z"/></g>
<g><path style="opacity:1" fill="#09e694" d="M 290.5,25.5 C 290.511,27.0174 291.177,28.1841 292.5,29C 290.431,29.3242 290.098,30.1575 291.5,31.5C 292.689,32.4287 294.022,32.762 295.5,32.5C 296.142,35.135 296.809,37.8016 297.5,40.5C 296.799,44.8079 296.466,49.1412 296.5,53.5C 295.5,53.5 294.5,53.5 293.5,53.5C 293.64,55.1238 292.973,56.2904 291.5,57C 291.957,57.414 292.291,57.914 292.5,58.5C 291.335,59.5836 290.002,60.4169 288.5,61C 288.833,61.3333 289.167,61.6667 289.5,62C 287.413,61.7821 285.413,61.9488 283.5,62.5C 286,64.8341 286,67.1674 283.5,69.5C 282.504,69.4142 281.671,69.7476 281,70.5C 280.667,69.5 280.333,68.5 280,67.5C 279.781,68.938 279.281,70.2713 278.5,71.5C 277.758,69.6503 276.758,68.9836 275.5,69.5C 275.977,68.5224 276.643,67.6891 277.5,67C 276.614,65.7827 275.614,64.4493 274.5,63C 279.396,53.379 279.73,43.5457 275.5,33.5C 273.158,33.4959 271.158,32.6625 269.5,31C 263.449,30.7918 257.449,30.2918 251.5,29.5C 249.937,30.9448 248.604,32.6115 247.5,34.5C 247.955,42.5749 247.122,50.5749 245,58.5C 244.177,66.6775 244.344,74.6775 245.5,82.5C 245.5,83.1667 245.5,83.8333 245.5,84.5C 244.21,85.0577 243.377,86.0577 243,87.5C 242.2,97.0031 241.366,106.503 240.5,116C 240.533,118.61 241.2,120.777 242.5,122.5C 242.414,123.496 242.748,124.329 243.5,125C 259.722,129.874 270.722,124.374 276.5,108.5C 277.643,105.024 277.81,101.358 277,97.5C 274.911,93.3317 273.411,88.9983 272.5,84.5C 271.167,84.5 269.833,84.5 268.5,84.5C 268.297,82.3618 267.297,80.6951 265.5,79.5C 267.506,79.8677 269.506,79.3677 271.5,78C 269.866,77.5065 268.199,77.3398 266.5,77.5C 266.242,72.528 268.242,71.3613 272.5,74C 272.043,74.414 271.709,74.914 271.5,75.5C 275.282,76.7054 278.948,78.2054 282.5,80C 283.147,81.6095 283.98,83.1095 285,84.5C 285.893,83.2888 286.726,83.2888 287.5,84.5C 286.833,85.1667 286.167,85.8333 285.5,86.5C 286.013,88.871 286.347,91.2044 286.5,93.5C 288.196,91.4544 289.529,89.1211 290.5,86.5C 291.852,87.5244 293.185,88.5244 294.5,89.5C 302.701,104.586 300.368,118.086 287.5,130C 283.192,132.988 278.525,135.155 273.5,136.5C 264.237,138.514 254.904,138.847 245.5,137.5C 246.167,136.5 246.833,135.5 247.5,134.5C 246.609,133.41 245.609,133.41 244.5,134.5C 243.522,134.023 242.689,133.357 242,132.5C 241.275,133.059 240.442,133.392 239.5,133.5C 237.944,132.453 236.277,131.786 234.5,131.5C 234.178,134.812 232.845,134.812 230.5,131.5C 229.833,131.833 229.167,132.167 228.5,132.5C 227.304,132.154 227.304,131.654 228.5,131C 226.134,130.56 223.801,130.06 221.5,129.5C 220.005,129.585 219.005,128.919 218.5,127.5C 220.486,116.928 222.486,106.261 224.5,95.5C 227.077,81.7569 228.744,67.7569 229.5,53.5C 229.415,51.6672 228.748,50.3339 227.5,49.5C 228.403,39.1901 228.736,29.0234 228.5,19C 228.025,17.2367 227.358,15.57 226.5,14C 227.025,13.3076 227.692,12.8076 228.5,12.5C 236.346,14.3382 242.846,18.3382 248,24.5C 259.48,18.1392 271.313,16.9726 283.5,21C 286.239,22.0259 288.572,23.5259 290.5,25.5 Z"/></g>
<g><path style="opacity:0.231" fill="#30cc94" d="M 516.5,7.5 C 520.059,10.6164 522.225,14.6164 523,19.5C 523.818,25.3487 523.652,31.0154 522.5,36.5C 523.55,26.0769 521.55,16.4102 516.5,7.5 Z"/></g>
<g><path style="opacity:0.004" fill="#000000" d="M 340.5,30.5 C 341.833,31.1667 341.833,31.1667 340.5,30.5 Z"/></g>
<g><path style="opacity:0.004" fill="#000000" d="M 349.5,30.5 C 350.833,31.1667 350.833,31.1667 349.5,30.5 Z"/></g>
<g><path style="opacity:0.004" fill="#000000" d="M 414.5,34.5 C 415.833,35.1667 415.833,35.1667 414.5,34.5 Z"/></g>
<g><path style="opacity:0.004" fill="#000000" d="M 488.5,35.5 C 489.833,36.1667 489.833,36.1667 488.5,35.5 Z"/></g>
<g><path style="opacity:1" fill="#25cb8e" d="M 513.5,5.5 C 511.287,4.3947 509.12,4.3947 507,5.5C 506.833,19.5119 506.333,33.5119 505.5,47.5C 504.832,50.3056 504.166,52.9723 503.5,55.5C 504.037,43.33 504.704,31.1633 505.5,19C 505.365,13.4174 504.698,7.91736 503.5,2.5C 503.808,1.69194 504.308,1.02527 505,0.5C 508.011,2.08052 510.844,3.74718 513.5,5.5 Z"/></g>
<g><path style="opacity:0.004" fill="#000000" d="M 532.5,39.5 C 533.833,40.1667 533.833,40.1667 532.5,39.5 Z"/></g>
<g><path style="opacity:0.004" fill="#000000" d="M 108.5,40.5 C 109.833,41.1667 109.833,41.1667 108.5,40.5 Z"/></g>
<g><path style="opacity:0.004" fill="#000000" d="M 363.5,40.5 C 364.833,41.1667 364.833,41.1667 363.5,40.5 Z"/></g>
<g><path style="opacity:0.004" fill="#000000" d="M 345.5,43.5 C 346.833,44.1667 346.833,44.1667 345.5,43.5 Z"/></g>
<g><path style="opacity:1" fill="#24d996" d="M 290.5,25.5 C 298.458,31.8821 301.291,39.8821 299,49.5C 296.465,58.2503 291.299,64.917 283.5,69.5C 286,67.1674 286,64.8341 283.5,62.5C 285.413,61.9488 287.413,61.7821 289.5,62C 289.167,61.6667 288.833,61.3333 288.5,61C 290.002,60.4169 291.335,59.5836 292.5,58.5C 292.291,57.914 291.957,57.414 291.5,57C 292.973,56.2904 293.64,55.1238 293.5,53.5C 294.5,53.5 295.5,53.5 296.5,53.5C 296.466,49.1412 296.799,44.8079 297.5,40.5C 296.809,37.8016 296.142,35.135 295.5,32.5C 294.022,32.762 292.689,32.4287 291.5,31.5C 290.098,30.1575 290.431,29.3242 292.5,29C 291.177,28.1841 290.511,27.0174 290.5,25.5 Z"/></g>
<g><path style="opacity:0.004" fill="#000000" d="M 388.5,45.5 C 389.833,46.1667 389.833,46.1667 388.5,45.5 Z"/></g>
<g><path style="opacity:0.102" fill="#25c691" d="M 379.5,56.5 C 365.935,50.9737 354.268,53.8071 344.5,65C 342.899,65.2734 341.399,65.7734 340,66.5C 339.53,65.4232 339.697,64.4232 340.5,63.5C 340.833,63.5 341.167,63.5 341.5,63.5C 341.833,64.8333 342.167,64.8333 342.5,63.5C 343.338,63.1583 343.672,62.4916 343.5,61.5C 344.167,61.5 344.5,61.1667 344.5,60.5C 346.179,60.7148 347.179,60.0481 347.5,58.5C 352.699,56.1002 358.365,53.7669 364.5,51.5C 367.105,52.0355 369.772,52.2022 372.5,52C 375.457,52.687 377.791,54.187 379.5,56.5 Z"/></g>
<g><path style="opacity:0.004" fill="#000000" d="M 388.5,54.5 C 389.833,55.1667 389.833,55.1667 388.5,54.5 Z"/></g>
<g><path style="opacity:1" fill="#1add93" d="M 473.5,61.5 C 471.123,60.5778 468.456,60.4111 465.5,61C 467.559,59.8145 467.726,58.6479 466,57.5C 464.286,58.0762 463.119,59.2429 462.5,61C 461.552,61.4828 460.552,61.6495 459.5,61.5C 458.568,63.7725 458.235,65.9392 458.5,68C 459.869,71.7165 460.536,75.5499 460.5,79.5C 459.455,75.0049 457.789,70.6716 455.5,66.5C 451.893,63.1013 447.893,62.6013 443.5,65C 439.667,67.5 436.5,70.6667 434,74.5C 430.784,80.3443 428.284,86.3443 426.5,92.5C 426.817,85.8598 428.817,79.8598 432.5,74.5C 431.167,74.1667 429.833,73.8333 428.5,73.5C 426.91,75.6797 425.576,78.013 424.5,80.5C 423.628,78.5342 423.795,76.5342 425,74.5C 426.626,73.0445 427.792,71.3779 428.5,69.5C 429.167,69.5 429.5,69.1667 429.5,68.5C 429.714,63.5731 431.381,59.2398 434.5,55.5C 433.975,54.8076 433.308,54.3076 432.5,54C 432.833,53.6667 433.167,53.3333 433.5,53C 431.803,52.6155 430.137,52.7822 428.5,53.5C 431.034,51.4207 434.034,50.0873 437.5,49.5C 439.741,50.0708 441.408,51.4042 442.5,53.5C 438.677,55.7726 435.011,58.9392 431.5,63C 431.833,63.1667 432.167,63.3333 432.5,63.5C 439.216,57.6424 446.882,53.6424 455.5,51.5C 463.606,50.8811 469.606,54.2145 473.5,61.5 Z"/></g>
<g><path style="opacity:0.808" fill="#33d0a2" d="M 522.5,37.5 C 523.097,37.7352 523.43,38.2352 523.5,39C 520.906,49.8754 519.573,60.7087 519.5,71.5C 519.957,72.2975 520.624,72.6309 521.5,72.5C 520.618,74.0843 519.785,75.751 519,77.5C 518.5,75.5 518,73.5 517.5,71.5C 518.884,59.9888 520.55,48.6555 522.5,37.5 Z"/></g>
<g><path style="opacity:0.004" fill="#000000" d="M 300.5,55.5 C 301.833,56.1667 301.833,56.1667 300.5,55.5 Z"/></g>
<g><path style="opacity:1" fill="#22d995" d="M 347.5,56.5 C 347.611,55.8826 347.944,55.3826 348.5,55C 346.307,53.9453 344.974,52.7786 344.5,51.5C 341.206,52.1359 339.873,54.1359 340.5,57.5C 337.027,58.4467 333.86,60.1134 331,62.5C 330.667,61.8333 330.333,61.1667 330,60.5C 326.146,67.5616 322.146,74.5616 318,81.5C 316.458,90.1037 316.124,98.7704 317,107.5C 318.576,112.839 319.743,118.172 320.5,123.5C 318.864,122.251 317.697,120.584 317,118.5C 310.5,97.3841 314.5,77.7174 329,59.5C 333.659,55.5084 338.826,52.3417 344.5,50C 348.175,48.7035 350.842,49.7035 352.5,53C 351.23,54.7754 349.564,55.942 347.5,56.5 Z"/></g>
<g><path style="opacity:1" fill="#06e794" d="M 473.5,61.5 C 475.265,65.3692 476.765,69.3692 478,73.5C 477.871,79.9165 478.705,85.9165 480.5,91.5C 479.023,101.061 475.857,110.061 471,118.5C 469.951,120.618 468.451,122.284 466.5,123.5C 464.887,123.056 463.72,122.056 463,120.5C 462.25,121.126 461.416,121.626 460.5,122C 461.423,124.041 461.756,126.208 461.5,128.5C 460.167,128.5 458.833,128.5 457.5,128.5C 457.5,129.5 457.5,130.5 457.5,131.5C 455.533,131.739 453.699,131.406 452,130.5C 451.411,132.863 449.911,133.863 447.5,133.5C 447.032,129.064 448.032,125.064 450.5,121.5C 454.726,117.055 457.56,111.721 459,105.5C 460.064,99.4452 461.23,93.4452 462.5,87.5C 462.618,84.5143 461.952,81.8476 460.5,79.5C 460.536,75.5499 459.869,71.7165 458.5,68C 458.235,65.9392 458.568,63.7725 459.5,61.5C 460.552,61.6495 461.552,61.4828 462.5,61C 463.119,59.2429 464.286,58.0762 466,57.5C 467.726,58.6479 467.559,59.8145 465.5,61C 468.456,60.4111 471.123,60.5778 473.5,61.5 Z"/></g>
<g><path style="opacity:1" fill="#0ce594" d="M 513.5,5.5 C 515.027,5.42702 516.027,6.09368 516.5,7.5C 521.55,16.4102 523.55,26.0769 522.5,36.5C 522.5,36.8333 522.5,37.1667 522.5,37.5C 520.55,48.6555 518.884,59.9888 517.5,71.5C 518,73.5 518.5,75.5 519,77.5C 519.785,75.751 520.618,74.0843 521.5,72.5C 526.612,62.3855 534.279,55.0521 544.5,50.5C 556.848,52.3488 563.515,59.5155 564.5,72C 564.345,76.7804 563.178,81.2804 561,85.5C 556.701,90.8049 551.534,94.9716 545.5,98C 552.3,118.113 562.634,136.113 576.5,152C 564.083,156.083 553.916,152.917 546,142.5C 538.21,129.585 532.043,115.918 527.5,101.5C 526.081,100.549 524.415,100.216 522.5,100.5C 522.5,99.1667 522.5,97.8333 522.5,96.5C 525.228,96.8294 527.562,96.1628 529.5,94.5C 542.439,89.954 547.606,80.954 545,67.5C 542.147,64.7262 538.981,64.2262 535.5,66C 529.518,71.4816 525.185,77.9816 522.5,85.5C 519.074,91.6011 517.407,98.2677 517.5,105.5C 516.71,106.609 516.21,107.942 516,109.5C 515.5,117.827 515.334,126.16 515.5,134.5C 509.162,135.072 503.162,134.072 497.5,131.5C 495.348,129.393 494.348,126.726 494.5,123.5C 496.758,100.591 499.758,77.924 503.5,55.5C 504.166,52.9723 504.832,50.3056 505.5,47.5C 506.333,33.5119 506.833,19.5119 507,5.5C 509.12,4.3947 511.287,4.3947 513.5,5.5 Z M 529.5,94.5 C 529.565,94.0618 529.399,93.7284 529,93.5C 526.931,94.2638 524.764,94.7638 522.5,95C 522,95.5 521.5,96 521,96.5C 521.003,92.8036 521.503,89.1369 522.5,85.5C 525.185,77.9816 529.518,71.4816 535.5,66C 538.981,64.2262 542.147,64.7262 545,67.5C 547.606,80.954 542.439,89.954 529.5,94.5 Z"/></g>
<g><path style="opacity:0.463" fill="#29c98f" d="M 544.5,50.5 C 534.279,55.0521 526.612,62.3855 521.5,72.5C 525.189,61.1467 532.856,53.8134 544.5,50.5 Z"/></g>
<g><path style="opacity:0.004" fill="#000000" d="M 582.5,61.5 C 583.833,62.1667 583.833,62.1667 582.5,61.5 Z"/></g>
<g><path style="opacity:0.996" fill="#38c491" d="M 473.5,61.5 C 476.081,64.3203 477.914,67.6536 479,71.5C 479.317,78.2716 479.817,84.9382 480.5,91.5C 478.705,85.9165 477.871,79.9165 478,73.5C 476.765,69.3692 475.265,65.3692 473.5,61.5 Z"/></g>
<g><path style="opacity:0.004" fill="#000000" d="M 112.5,63.5 C 113.833,64.1667 113.833,64.1667 112.5,63.5 Z"/></g>
<g><path style="opacity:1" fill="#0fe595" d="M 623.5,51.5 C 635.548,56.2536 639.382,64.5869 635,76.5C 629.3,83.998 622.134,86.1647 613.5,83C 616.345,79.6387 618.679,75.9721 620.5,72C 620.307,70.3547 620.14,68.5213 620,66.5C 619.31,64.6498 618.144,63.3164 616.5,62.5C 613.851,60.8906 610.851,60.0572 607.5,60C 611.387,59.7611 615.054,58.9277 618.5,57.5C 618.5,56.5 618.5,55.5 618.5,54.5C 618.23,53.6649 616.23,54.6649 612.5,57.5C 609.882,56.4264 607.715,57.093 606,59.5C 605.676,57.4311 604.842,57.0977 603.5,58.5C 602.069,58.0234 600.736,57.3567 599.5,56.5C 600.737,55.7193 601.737,54.7193 602.5,53.5C 609.655,52.8333 616.655,52.1666 623.5,51.5 Z"/></g>
<g><path style="opacity:1" fill="#1ddb93" d="M 283.5,69.5 C 281.911,71.3056 279.911,72.6389 277.5,73.5C 276.479,74.0016 276.312,74.6683 277,75.5C 281.746,77.9068 286.246,80.7401 290.5,84C 292.464,85.451 293.797,87.2843 294.5,89.5C 293.185,88.5244 291.852,87.5244 290.5,86.5C 289.529,89.1211 288.196,91.4544 286.5,93.5C 286.347,91.2044 286.013,88.871 285.5,86.5C 286.167,85.8333 286.833,85.1667 287.5,84.5C 286.726,83.2888 285.893,83.2888 285,84.5C 283.98,83.1095 283.147,81.6095 282.5,80C 278.948,78.2054 275.282,76.7054 271.5,75.5C 271.709,74.914 272.043,74.414 272.5,74C 268.242,71.3613 266.242,72.528 266.5,77.5C 268.199,77.3398 269.866,77.5065 271.5,78C 269.506,79.3677 267.506,79.8677 265.5,79.5C 267.297,80.6951 268.297,82.3618 268.5,84.5C 269.833,84.5 271.167,84.5 272.5,84.5C 273.411,88.9983 274.911,93.3317 277,97.5C 277.81,101.358 277.643,105.024 276.5,108.5C 276.801,90.1354 267.801,80.4688 249.5,79.5C 249.244,77.2075 249.577,75.0408 250.5,73C 266.11,71.2398 275.11,62.7398 277.5,47.5C 277.889,39.9274 274.555,34.9274 267.5,32.5C 264.014,32.5508 260.514,32.5508 257,32.5C 254.681,33.8713 252.181,34.5379 249.5,34.5C 249.649,44.442 248.649,54.2753 246.5,64C 246.833,64.3333 247.167,64.6667 247.5,65C 246.588,70.7615 245.921,76.5948 245.5,82.5C 244.344,74.6775 244.177,66.6775 245,58.5C 247.122,50.5749 247.955,42.5749 247.5,34.5C 248.604,32.6115 249.937,30.9448 251.5,29.5C 257.449,30.2918 263.449,30.7918 269.5,31C 271.158,32.6625 273.158,33.4959 275.5,33.5C 279.73,43.5457 279.396,53.379 274.5,63C 275.614,64.4493 276.614,65.7827 277.5,67C 276.643,67.6891 275.977,68.5224 275.5,69.5C 276.758,68.9836 277.758,69.6503 278.5,71.5C 279.281,70.2713 279.781,68.938 280,67.5C 280.333,68.5 280.667,69.5 281,70.5C 281.671,69.7476 282.504,69.4142 283.5,69.5 Z"/></g>
<g><path style="opacity:1" fill="#03e794" d="M 347.5,56.5 C 347.5,57.1667 347.5,57.8333 347.5,58.5C 345.973,58.427 344.973,59.0937 344.5,60.5C 343.833,60.5 343.5,60.8333 343.5,61.5C 343.672,62.4916 343.338,63.1583 342.5,63.5C 342.167,63.5 341.833,63.5 341.5,63.5C 341.167,63.5 340.833,63.5 340.5,63.5C 337.5,64.9721 335.833,67.4721 335.5,71C 335.759,72.2613 336.426,73.2613 337.5,74C 334.694,75.3051 333.86,77.4718 335,80.5C 336.011,79.6634 337.178,79.33 338.5,79.5C 338.5,80.5 338.5,81.5 338.5,82.5C 335.691,92.9599 334.857,103.627 336,114.5C 336.424,117.025 337.59,119.025 339.5,120.5C 339.5,120.833 339.5,121.167 339.5,121.5C 340.961,123.484 341.627,125.484 341.5,127.5C 348.489,127.952 355.322,127.952 362,127.5C 362.456,126.256 361.956,125.423 360.5,125C 362.688,122.805 364.521,120.305 366,117.5C 368.971,118.428 371.471,120.428 373.5,123.5C 373.333,124.167 373.167,124.833 373,125.5C 371.686,124.687 370.519,123.687 369.5,122.5C 368.284,123.002 367.117,123.335 366,123.5C 367.404,125.832 368.238,128.499 368.5,131.5C 367.127,131.343 365.793,131.51 364.5,132C 359.565,135.914 353.898,137.414 347.5,136.5C 342.68,136.695 338.013,136.028 333.5,134.5C 332.253,132.994 332.253,131.494 333.5,130C 332.391,129.362 331.225,128.862 330,128.5C 328.989,128.892 328.489,129.559 328.5,130.5C 327.583,129.873 326.583,129.539 325.5,129.5C 323.086,128.089 321.419,126.089 320.5,123.5C 319.743,118.172 318.576,112.839 317,107.5C 316.124,98.7704 316.458,90.1037 318,81.5C 322.146,74.5616 326.146,67.5616 330,60.5C 330.333,61.1667 330.667,61.8333 331,62.5C 333.86,60.1134 337.027,58.4467 340.5,57.5C 339.873,54.1359 341.206,52.1359 344.5,51.5C 344.974,52.7786 346.307,53.9453 348.5,55C 347.944,55.3826 347.611,55.8826 347.5,56.5 Z"/></g>
<g><path style="opacity:0.004" fill="#000000" d="M 1.5,78.5 C 2.83333,79.1667 2.83333,79.1667 1.5,78.5 Z"/></g>
<g><path style="opacity:0.035" fill="#2ccb93" d="M 227.5,49.5 C 228.748,50.3339 229.415,51.6672 229.5,53.5C 228.744,67.7569 227.077,81.7569 224.5,95.5C 224.714,93.8561 224.38,92.3561 223.5,91C 224.79,86.0515 225.79,81.0515 226.5,76C 226.043,75.586 225.709,75.086 225.5,74.5C 226.466,67.3489 227.466,60.1823 228.5,53C 228.352,51.7441 228.018,50.5774 227.5,49.5 Z"/></g>
<g><path style="opacity:1" fill="#10e295" d="M 379.5,56.5 C 380.496,56.4142 381.329,56.7476 382,57.5C 384.157,59.8171 385.657,62.4838 386.5,65.5C 388.275,77.4146 388.942,89.4146 388.5,101.5C 385.905,113.972 379.239,123.972 368.5,131.5C 368.238,128.499 367.404,125.832 366,123.5C 367.117,123.335 368.284,123.002 369.5,122.5C 370.519,123.687 371.686,124.687 373,125.5C 373.167,124.833 373.333,124.167 373.5,123.5C 371.471,120.428 368.971,118.428 366,117.5C 364.521,120.305 362.688,122.805 360.5,125C 361.956,125.423 362.456,126.256 362,127.5C 355.322,127.952 348.489,127.952 341.5,127.5C 341.627,125.484 340.961,123.484 339.5,121.5C 347.414,129.013 354.914,128.346 362,119.5C 366.535,111.395 369.368,102.729 370.5,93.5C 370.337,87.9301 370.337,82.5968 370.5,77.5C 369.518,74.9044 368.851,72.2377 368.5,69.5C 369.391,70.2613 370.058,71.2613 370.5,72.5C 371.651,73.731 372.817,73.731 374,72.5C 375.365,73.5929 375.699,74.9262 375,76.5C 374.333,75.8333 373.667,75.1667 373,74.5C 372.219,82.4675 372.552,89.4675 374,95.5C 377.259,91.6696 379.093,92.5029 379.5,98C 385.848,97.976 385.848,99.476 379.5,102.5C 377.976,100.517 376.976,98.1841 376.5,95.5C 375.719,96.7287 375.219,98.062 375,99.5C 373.951,98.4829 372.784,98.3162 371.5,99C 371.621,102.089 371.287,105.256 370.5,108.5C 374.007,111.764 373.007,113.431 367.5,113.5C 367.351,114.552 367.517,115.552 368,116.5C 369.987,117.218 371.821,118.218 373.5,119.5C 374.852,118.482 375.852,117.149 376.5,115.5C 377.748,116.04 378.915,116.707 380,117.5C 379.996,114.21 379.162,111.043 377.5,108C 378.082,104.045 379.749,103.545 382.5,106.5C 385.575,104.82 387.075,102.154 387,98.5C 387.962,91.0135 387.462,83.6802 385.5,76.5C 384.167,76.5 382.833,76.5 381.5,76.5C 381.739,71.5845 382.572,66.9178 384,62.5C 382.016,59.0057 379.183,58.0057 375.5,59.5C 374.649,61.8816 373.316,63.8816 371.5,65.5C 370.691,64.3189 370.691,62.9856 371.5,61.5C 372.787,59.8404 374.12,58.1738 375.5,56.5C 374.132,55.4063 372.965,55.7397 372,57.5C 371.439,56.9781 370.772,56.6448 370,56.5C 367.865,57.1271 365.698,57.6271 363.5,58C 364.888,58.8893 364.722,59.3893 363,59.5C 361.441,58.9706 359.941,58.304 358.5,57.5C 356.054,58.9828 356.388,60.1495 359.5,61C 358.263,61.2321 357.263,61.7321 356.5,62.5C 353.691,64.8966 350.358,66.2299 346.5,66.5C 347.21,69.8595 345.876,71.6929 342.5,72C 342.957,72.414 343.291,72.914 343.5,73.5C 342.059,76.7235 340.392,79.7235 338.5,82.5C 338.5,81.5 338.5,80.5 338.5,79.5C 337.178,79.33 336.011,79.6634 335,80.5C 333.86,77.4718 334.694,75.3051 337.5,74C 336.426,73.2613 335.759,72.2613 335.5,71C 335.833,67.4721 337.5,64.9721 340.5,63.5C 339.697,64.4232 339.53,65.4232 340,66.5C 341.399,65.7734 342.899,65.2734 344.5,65C 354.268,53.8071 365.935,50.9737 379.5,56.5 Z"/></g>
<g><path style="opacity:1" fill="#02e894" d="M 368.5,69.5 C 367.662,69.1583 367.328,68.4916 367.5,67.5C 367.489,65.9826 366.823,64.8159 365.5,64C 362.607,62.8512 359.607,62.3512 356.5,62.5C 357.263,61.7321 358.263,61.2321 359.5,61C 356.388,60.1495 356.054,58.9828 358.5,57.5C 359.941,58.304 361.441,58.9706 363,59.5C 364.722,59.3893 364.888,58.8893 363.5,58C 365.698,57.6271 367.865,57.1271 370,56.5C 370.772,56.6448 371.439,56.9781 372,57.5C 372.965,55.7397 374.132,55.4063 375.5,56.5C 374.12,58.1738 372.787,59.8404 371.5,61.5C 370.691,62.9856 370.691,64.3189 371.5,65.5C 373.316,63.8816 374.649,61.8816 375.5,59.5C 379.183,58.0057 382.016,59.0057 384,62.5C 382.572,66.9178 381.739,71.5845 381.5,76.5C 382.833,76.5 384.167,76.5 385.5,76.5C 387.462,83.6802 387.962,91.0135 387,98.5C 387.075,102.154 385.575,104.82 382.5,106.5C 379.749,103.545 378.082,104.045 377.5,108C 379.162,111.043 379.996,114.21 380,117.5C 378.915,116.707 377.748,116.04 376.5,115.5C 375.852,117.149 374.852,118.482 373.5,119.5C 371.821,118.218 369.987,117.218 368,116.5C 367.517,115.552 367.351,114.552 367.5,113.5C 373.007,113.431 374.007,111.764 370.5,108.5C 371.287,105.256 371.621,102.089 371.5,99C 372.784,98.3162 373.951,98.4829 375,99.5C 375.219,98.062 375.719,96.7287 376.5,95.5C 376.976,98.1841 377.976,100.517 379.5,102.5C 385.848,99.476 385.848,97.976 379.5,98C 379.093,92.5029 377.259,91.6696 374,95.5C 372.552,89.4675 372.219,82.4675 373,74.5C 373.667,75.1667 374.333,75.8333 375,76.5C 375.699,74.9262 375.365,73.5929 374,72.5C 372.817,73.731 371.651,73.731 370.5,72.5C 370.058,71.2613 369.391,70.2613 368.5,69.5 Z"/></g>
<g><path style="opacity:1" fill="#04e794" d="M 429.5,68.5 C 428.833,68.5 428.5,68.8333 428.5,69.5C 427.792,71.3779 426.626,73.0445 425,74.5C 423.795,76.5342 423.628,78.5342 424.5,80.5C 425.576,78.013 426.91,75.6797 428.5,73.5C 429.833,73.8333 431.167,74.1667 432.5,74.5C 428.817,79.8598 426.817,85.8598 426.5,92.5C 425.732,93.2625 425.232,94.2625 425,95.5C 424.667,102.167 424.333,108.833 424,115.5C 423.535,116.931 422.701,118.097 421.5,119C 422.573,122.576 424.906,125.076 428.5,126.5C 430.263,125.046 431.597,125.38 432.5,127.5C 430.678,129.01 428.678,130.343 426.5,131.5C 425.614,132.325 425.281,133.325 425.5,134.5C 424.5,134.5 423.5,134.5 422.5,134.5C 422.52,132.857 421.853,131.524 420.5,130.5C 417.092,129.901 414.092,128.568 411.5,126.5C 410.4,125.395 409.733,124.062 409.5,122.5C 405.845,114.206 404.678,105.54 406,96.5C 406.848,93.3022 408.348,90.4689 410.5,88C 409.437,86.8118 408.103,86.3118 406.5,86.5C 408.24,79.9476 410.573,73.6143 413.5,67.5C 416.561,60.7724 421.561,56.1057 428.5,53.5C 430.137,52.7822 431.803,52.6155 433.5,53C 433.167,53.3333 432.833,53.6667 432.5,54C 433.308,54.3076 433.975,54.8076 434.5,55.5C 431.381,59.2398 429.714,63.5731 429.5,68.5 Z"/></g>
<g><path style="opacity:0.463" fill="#2eca93" d="M 356.5,62.5 C 359.607,62.3512 362.607,62.8512 365.5,64C 366.823,64.8159 367.489,65.9826 367.5,67.5C 364.769,64.6451 361.436,63.4784 357.5,64C 352.123,65.6019 347.956,68.7685 345,73.5C 336.351,88.36 334.518,104.027 339.5,120.5C 337.59,119.025 336.424,117.025 336,114.5C 334.857,103.627 335.691,92.9599 338.5,82.5C 340.392,79.7235 342.059,76.7235 343.5,73.5C 343.291,72.914 342.957,72.414 342.5,72C 345.876,71.6929 347.21,69.8595 346.5,66.5C 350.358,66.2299 353.691,64.8966 356.5,62.5 Z"/></g>
<g><path style="opacity:0.004" fill="#000000" d="M 391.5,81.5 C 392.833,82.1667 392.833,82.1667 391.5,81.5 Z"/></g>
<g><path style="opacity:1" fill="#29d49c" d="M 386.5,65.5 C 388.328,68.135 389.495,71.135 390,74.5C 390.373,81.6139 390.54,88.6139 390.5,95.5C 389.95,97.6568 389.283,99.6568 388.5,101.5C 388.942,89.4146 388.275,77.4146 386.5,65.5 Z"/></g>
<g><path style="opacity:0.004" fill="#000000" d="M 583.5,85.5 C 582.833,86.1667 582.833,86.1667 583.5,85.5 Z"/></g>
<g><path style="opacity:1" fill="#25d493" d="M 413.5,67.5 C 410.573,73.6143 408.24,79.9476 406.5,86.5C 408.103,86.3118 409.437,86.8118 410.5,88C 408.348,90.4689 406.848,93.3022 406,96.5C 404.678,105.54 405.845,114.206 409.5,122.5C 407.163,120.035 405.663,117.035 405,113.5C 402.976,102.765 403.309,92.0982 406,81.5C 407.751,76.3256 410.251,71.659 413.5,67.5 Z"/></g>
<g><path style="opacity:0.004" fill="#000000" d="M 577.5,87.5 C 578.833,88.1667 578.833,88.1667 577.5,87.5 Z"/></g>
<g><path style="opacity:1" fill="#02e894" d="M 632.5,104.5 C 633.39,106.782 633.556,109.115 633,111.5C 631.43,112.614 630.097,113.947 629,115.5C 627.211,113.771 625.044,113.104 622.5,113.5C 622.343,114.873 622.51,116.207 623,117.5C 627.14,115.653 629.307,116.986 629.5,121.5C 633.335,122.004 633.335,123.004 629.5,124.5C 628.985,126.225 628.318,127.892 627.5,129.5C 626.914,129.291 626.414,128.957 626,128.5C 622.129,133.009 617.295,134.509 611.5,133C 615.852,132.581 616.185,131.914 612.5,131C 614.503,128.998 616.836,127.498 619.5,126.5C 618.478,125.646 617.645,124.646 617,123.5C 616.944,117.241 614.777,111.908 610.5,107.5C 611.492,104.924 610.659,102.924 608,101.5C 605.939,101.235 603.773,101.568 601.5,102.5C 600.492,100.661 598.992,99.3281 597,98.5C 596.667,97.1667 596.333,95.8333 596,94.5C 592.383,93.9604 590.216,91.9604 589.5,88.5C 594.629,88.281 594.629,87.6144 589.5,86.5C 589.167,83.5 587.5,81.8333 584.5,81.5C 584.489,79.4534 584.156,77.4534 583.5,75.5C 584.641,70.0969 586.474,65.0969 589,60.5C 591.566,59.7581 593.733,58.4247 595.5,56.5C 597.592,57.7428 599.592,59.2428 601.5,61C 600.422,61.6739 599.755,62.6739 599.5,64C 600.416,71.16 600.583,78.3266 600,85.5C 601,84.1667 602,82.8333 603,81.5C 605.326,82.8132 606.659,84.8132 607,87.5C 608.307,88.7717 609.807,89.7717 611.5,90.5C 610.391,91.9647 610.891,92.9647 613,93.5C 613.308,92.6919 613.808,92.0253 614.5,91.5C 617.383,94.1092 620.717,95.9425 624.5,97C 625.337,98.0113 625.67,99.1779 625.5,100.5C 628.303,100.961 630.637,102.295 632.5,104.5 Z"/></g>
<g><path style="opacity:1" fill="#1edd95" d="M 623.5,51.5 C 616.655,52.1666 609.655,52.8333 602.5,53.5C 601.737,54.7193 600.737,55.7193 599.5,56.5C 600.736,57.3567 602.069,58.0234 603.5,58.5C 604.842,57.0977 605.676,57.4311 606,59.5C 607.715,57.093 609.882,56.4264 612.5,57.5C 616.23,54.6649 618.23,53.6649 618.5,54.5C 618.5,55.5 618.5,56.5 618.5,57.5C 615.054,58.9277 611.387,59.7611 607.5,60C 610.851,60.0572 613.851,60.8906 616.5,62.5C 605.45,60.054 600.616,64.3873 602,75.5C 604.245,79.4974 607.078,82.9974 610.5,86C 615.948,89.2729 621.281,92.7729 626.5,96.5C 628.934,98.921 630.934,101.588 632.5,104.5C 630.637,102.295 628.303,100.961 625.5,100.5C 625.67,99.1779 625.337,98.0113 624.5,97C 620.717,95.9425 617.383,94.1092 614.5,91.5C 613.808,92.0253 613.308,92.6919 613,93.5C 610.891,92.9647 610.391,91.9647 611.5,90.5C 609.807,89.7717 608.307,88.7717 607,87.5C 606.659,84.8132 605.326,82.8132 603,81.5C 602,82.8333 601,84.1667 600,85.5C 600.583,78.3266 600.416,71.16 599.5,64C 599.755,62.6739 600.422,61.6739 601.5,61C 599.592,59.2428 597.592,57.7428 595.5,56.5C 593.733,58.4247 591.566,59.7581 589,60.5C 586.474,65.0969 584.641,70.0969 583.5,75.5C 584.156,77.4534 584.489,79.4534 584.5,81.5C 587.5,81.8333 589.167,83.5 589.5,86.5C 594.629,87.6144 594.629,88.281 589.5,88.5C 590.216,91.9604 592.383,93.9604 596,94.5C 596.333,95.8333 596.667,97.1667 597,98.5C 598.992,99.3281 600.492,100.661 601.5,102.5C 597.12,100.3 593.12,97.4665 589.5,94C 587.248,91.2639 585.248,88.4305 583.5,85.5C 578.918,69.1652 584.584,57.9985 600.5,52C 608.372,50.1939 616.039,50.0273 623.5,51.5 Z"/></g>
<g><path style="opacity:0.847" fill="#2ccf97" d="M 245.5,84.5 C 243.193,97.0058 242.193,109.672 242.5,122.5C 241.2,120.777 240.533,118.61 240.5,116C 241.366,106.503 242.2,97.0031 243,87.5C 243.377,86.0577 244.21,85.0577 245.5,84.5 Z"/></g>
<g><path style="opacity:0.31" fill="#29c88b" d="M 460.5,79.5 C 461.952,81.8476 462.618,84.5143 462.5,87.5C 461.23,93.4452 460.064,99.4452 459,105.5C 457.56,111.721 454.726,117.055 450.5,121.5C 458.012,108.628 461.346,94.6278 460.5,79.5 Z"/></g>
<g><path style="opacity:0.367" fill="#2ad49b" d="M 522.5,85.5 C 521.503,89.1369 521.003,92.8036 521,96.5C 521.5,96 522,95.5 522.5,95C 524.764,94.7638 526.931,94.2638 529,93.5C 529.399,93.7284 529.565,94.0618 529.5,94.5C 527.562,96.1628 525.228,96.8294 522.5,96.5C 522.5,97.8333 522.5,99.1667 522.5,100.5C 524.415,100.216 526.081,100.549 527.5,101.5C 525.5,101.5 523.5,101.5 521.5,101.5C 521.719,100.325 521.386,99.325 520.5,98.5C 519.641,101 518.641,103.333 517.5,105.5C 517.407,98.2677 519.074,91.6011 522.5,85.5 Z"/></g>
<g><path style="opacity:0.004" fill="#000000" d="M 565.5,114.5 C 566.833,115.167 566.833,115.167 565.5,114.5 Z"/></g>
<g><path style="opacity:0.004" fill="#000000" d="M 113.5,122.5 C 114.833,123.167 114.833,123.167 113.5,122.5 Z"/></g>
<g><path style="opacity:1" fill="#2ad393" d="M 368.5,131.5 C 362.33,136.5 355.164,138.834 347,138.5C 338.28,138.88 331.114,135.88 325.5,129.5C 326.583,129.539 327.583,129.873 328.5,130.5C 328.489,129.559 328.989,128.892 330,128.5C 331.225,128.862 332.391,129.362 333.5,130C 332.253,131.494 332.253,132.994 333.5,134.5C 338.013,136.028 342.68,136.695 347.5,136.5C 353.898,137.414 359.565,135.914 364.5,132C 365.793,131.51 367.127,131.343 368.5,131.5 Z"/></g>
<g><path style="opacity:1" fill="#19df94" d="M 426.5,92.5 C 426.611,93.1174 426.944,93.6174 427.5,94C 425.103,104.148 426.27,113.981 431,123.5C 437.923,128.426 444.423,127.76 450.5,121.5C 448.032,125.064 447.032,129.064 447.5,133.5C 449.911,133.863 451.411,132.863 452,130.5C 453.699,131.406 455.533,131.739 457.5,131.5C 457.5,130.5 457.5,129.5 457.5,128.5C 458.833,128.5 460.167,128.5 461.5,128.5C 461.756,126.208 461.423,124.041 460.5,122C 461.416,121.626 462.25,121.126 463,120.5C 463.72,122.056 464.887,123.056 466.5,123.5C 459.285,133.639 449.285,138.639 436.5,138.5C 426.166,138.498 417.832,134.498 411.5,126.5C 414.092,128.568 417.092,129.901 420.5,130.5C 421.853,131.524 422.52,132.857 422.5,134.5C 423.5,134.5 424.5,134.5 425.5,134.5C 425.281,133.325 425.614,132.325 426.5,131.5C 428.678,130.343 430.678,129.01 432.5,127.5C 431.597,125.38 430.263,125.046 428.5,126.5C 424.906,125.076 422.573,122.576 421.5,119C 422.701,118.097 423.535,116.931 424,115.5C 424.333,108.833 424.667,102.167 425,95.5C 425.232,94.2625 425.732,93.2625 426.5,92.5 Z"/></g>
<g><path style="opacity:0.004" fill="#000000" d="M 634.5,129.5 C 635.833,130.167 635.833,130.167 634.5,129.5 Z"/></g>
<g><path style="opacity:1" fill="#1eda92" d="M 221.5,129.5 C 223.801,130.06 226.134,130.56 228.5,131C 227.304,131.654 227.304,132.154 228.5,132.5C 229.167,132.167 229.833,131.833 230.5,131.5C 232.845,134.812 234.178,134.812 234.5,131.5C 236.277,131.786 237.944,132.453 239.5,133.5C 240.442,133.392 241.275,133.059 242,132.5C 242.689,133.357 243.522,134.023 244.5,134.5C 245.609,133.41 246.609,133.41 247.5,134.5C 246.833,135.5 246.167,136.5 245.5,137.5C 254.904,138.847 264.237,138.514 273.5,136.5C 271.123,137.887 268.457,138.721 265.5,139C 253.148,140.562 241.148,139.228 229.5,135C 226.593,133.391 223.927,131.558 221.5,129.5 Z"/></g>
<g><path style="opacity:1" fill="#27d092" d="M 517.5,105.5 C 517.414,106.496 517.748,107.329 518.5,108C 516.637,114.194 515.97,120.194 516.5,126C 517.077,129.056 517.743,132.056 518.5,135C 517.646,136.022 516.646,136.855 515.5,137.5C 511.555,136.732 507.555,136.232 503.5,136C 500.726,135.376 498.726,133.876 497.5,131.5C 503.162,134.072 509.162,135.072 515.5,134.5C 515.334,126.16 515.5,117.827 516,109.5C 516.21,107.942 516.71,106.609 517.5,105.5 Z"/></g>
<g><path style="opacity:1" fill="#1cde94" d="M 632.5,104.5 C 634.098,106.395 635.432,108.562 636.5,111C 635.25,127.259 626.25,136.592 609.5,139C 599.967,140.16 590.967,138.493 582.5,134C 574.841,127.244 573.508,119.41 578.5,110.5C 582.932,106.288 588.265,104.288 594.5,104.5C 598.263,106.017 598.263,107.684 594.5,109.5C 594.414,108.504 594.748,107.671 595.5,107C 591.375,106.146 587.375,106.48 583.5,108C 580.773,110.241 580.106,112.907 581.5,116C 579.808,117.401 579.141,119.234 579.5,121.5C 578.325,121.281 577.325,121.614 576.5,122.5C 576.846,123.696 577.346,123.696 578,122.5C 578.192,124.577 578.692,126.577 579.5,128.5C 583.547,130.287 587.214,132.62 590.5,135.5C 593.736,136.941 596.736,136.608 599.5,134.5C 601.58,135.331 603.58,136.331 605.5,137.5C 606.167,137.167 606.833,136.833 607.5,136.5C 606.024,135.12 605.024,133.453 604.5,131.5C 602.64,130.675 600.974,129.675 599.5,128.5C 602.235,128.477 605.068,128.477 608,128.5C 615.699,124.157 617.032,118.491 612,111.5C 608.708,108.127 605.208,105.127 601.5,102.5C 603.773,101.568 605.939,101.235 608,101.5C 610.659,102.924 611.492,104.924 610.5,107.5C 614.777,111.908 616.944,117.241 617,123.5C 617.645,124.646 618.478,125.646 619.5,126.5C 616.836,127.498 614.503,128.998 612.5,131C 616.185,131.914 615.852,132.581 611.5,133C 617.295,134.509 622.129,133.009 626,128.5C 626.414,128.957 626.914,129.291 627.5,129.5C 628.318,127.892 628.985,126.225 629.5,124.5C 633.335,123.004 633.335,122.004 629.5,121.5C 629.307,116.986 627.14,115.653 623,117.5C 622.51,116.207 622.343,114.873 622.5,113.5C 625.044,113.104 627.211,113.771 629,115.5C 630.097,113.947 631.43,112.614 633,111.5C 633.556,109.115 633.39,106.782 632.5,104.5 Z"/></g>
<g><path style="opacity:1" fill="#0be695" d="M 594.5,109.5 C 590.484,117.183 592.151,123.516 599.5,128.5C 600.974,129.675 602.64,130.675 604.5,131.5C 605.024,133.453 606.024,135.12 607.5,136.5C 606.833,136.833 606.167,137.167 605.5,137.5C 603.58,136.331 601.58,135.331 599.5,134.5C 596.736,136.608 593.736,136.941 590.5,135.5C 587.214,132.62 583.547,130.287 579.5,128.5C 578.692,126.577 578.192,124.577 578,122.5C 577.346,123.696 576.846,123.696 576.5,122.5C 577.325,121.614 578.325,121.281 579.5,121.5C 579.141,119.234 579.808,117.401 581.5,116C 580.106,112.907 580.773,110.241 583.5,108C 587.375,106.48 591.375,106.146 595.5,107C 594.748,107.671 594.414,108.504 594.5,109.5 Z"/></g>
<g><path style="opacity:0.004" fill="#000000" d="M 618.5,142.5 C 619.833,143.167 619.833,143.167 618.5,142.5 Z"/></g>
<g><path style="opacity:0.004" fill="#000000" d="M 286.5,144.5 C 287.833,145.167 287.833,145.167 286.5,144.5 Z"/></g>
<g><path style="opacity:0.004" fill="#000000" d="M 400.5,144.5 C 401.833,145.167 401.833,145.167 400.5,144.5 Z"/></g>
<g><path style="opacity:0.004" fill="#000000" d="M 505.5,150.5 C 506.833,151.167 506.833,151.167 505.5,150.5 Z"/></g>
<g><path style="opacity:0.004" fill="#000000" d="M 355.5,155.5 C 354.833,154.167 354.833,154.167 355.5,155.5 Z"/></g>
</svg>
